<svg id="Camada_1" data-name="Camada 1" xmlns="http://www.w3.org/2000/svg" xmlns:xlink="http://www.w3.org/1999/xlink" viewBox="0 0 1819.8679 186.8422"><defs><style>.cls-1{fill:none;}.cls-2{clip-path:url(#clip-path);}.cls-3{fill:#fff;fill-rule:evenodd;}</style><clipPath id="clip-path" transform="translate(-0.566 -0.0779)"><rect class="cls-1" width="1821" height="187"/></clipPath></defs><title>logo</title><g class="cls-2"><path class="cls-3" d="M405.672,186.688,466.547.0779h91.941l61.9139,186.61H550.3831l-11.641-33.618H483.734l-11.683,33.618ZM512.711,41.41l-26.566,73.938h51.031Zm671.777,145.356L1245.3632.156h91.934l61.9329,186.61h-70.027l-11.625-33.618h-55.016l-11.683,33.618ZM1291.5271,41.4879,1264.973,115.426h51.0311ZM636.402,186.688V.0779h132.36c14.9409,0,27.101,5.3322,36.6719,11.8671,9.543,6.52,17.746,14.9341,21.011,26.3831,4.6409,16.234,3.61,29.297.528,38.246a48.0545,48.0545,0,0,1-16.149,22.5c-7.6759,6.02-14.074,10.758-28.422,14.203,5.536,5.629,5.4851,5.856,12.0241,10.485,8.8979,6.293,17.1089,7.187,47.5539,7.316l52.352.02v55.59l-52.711.136c-57.3709.145-77.566-.301-88.559-10.164-13.82-12.394-28.851-26.918-49.734-51.605v61.633ZM703.316,46.574V80.992h46.645a15.2183,15.2183,0,0,0,8.101-2.785c2.8911-1.848,4.465-6.527,4.641-14.0229-.437-7.1531-2.187-11.868-5.203-14.1641-3.027-2.286-5.605-3.446-7.6169-3.446ZM1820.434.156H1683.8711q-35.3672,0-42.062,34.6289-6.639,34.5947,37.9961,75.9611,27.0524,21.522-9.25,20.43h-31.75v-.078l-16.828-.02c-30.457-.129-38.668-1.012-47.5591-7.316-6.5349-4.641-6.4959-4.856-12.0229-10.485,14.3469-3.445,20.75-8.183,28.4249-14.203a47.8812,47.8812,0,0,0,16.145-22.5c3.074-8.949,4.105-22.012-.5309-38.246-3.27-11.449-11.4609-19.863-20.993-26.3831C1575.8669,5.41,1563.7111.0779,1548.77.0779H1416.41v186.61h66.9141V125.055c20.875,24.687,35.9031,39.211,49.7351,51.605,10.98,9.863,31.175,10.61,88.5579,10.164l9.9491-.078v.02h98.469q39.9554-6.756,40.7889-41.379c.477-23.075-12.859-47.1411-40.7889-71.332-15.25-13.211-12.215-18.356,9.75-18.356h80.6489Zm-337.11,46.418V80.992h46.6411a15.1457,15.1457,0,0,0,8.0939-2.785c2.89-1.848,4.464-6.527,4.64-14.0229-.437-7.1531-2.1909-11.868-5.207-14.1641-3.0229-2.286-5.5819-3.446-7.594-3.446ZM147.578.0779q-35.3849,0-42.055,34.6292c-4.425,23.074,7.5,49.231,37.977,75.9611,17.324,15.1949,14.922,20.43-9.23,20.43H.566v55.59H193.742c27.024,0,40.289-18.278,40.785-41.379q.744-34.5946-40.785-71.332Q170.5161,54.588,203.5,55.633h82.895V186.699h60.21V55.621h84.067V.0779Zm883.0741,0-16.566,55.4451L995.7111.0779H926.648l60.872,186.61h59.64l20.426-62.344,20.41,62.344h59.6371l60.875-186.61h-69.067L1121.066,55.523,1104.5.0779Zm0,0" transform="translate(-0.566 -0.0779)"/></g></svg>