<svg id="Camada_1" data-name="Camada 1" xmlns="http://www.w3.org/2000/svg" xmlns:xlink="http://www.w3.org/1999/xlink" viewBox="0 0 1819.87 186.84"><defs><style>.cls-1{fill:none;}.cls-2{clip-path:url(#clip-path);}.cls-3{fill:#70b548;fill-rule:evenodd;}</style><clipPath id="clip-path" transform="translate(-0.57 -0.08)"><rect class="cls-1" width="1821" height="187"/></clipPath></defs><title>logo</title><g class="cls-2"><path class="cls-3" d="M405.67,186.69,466.55.08h91.94L620.4,186.69h-70l-11.64-33.62h-55l-11.68,33.62Zm107-145.28-26.57,73.94h51Zm671.78,145.36L1245.36.16h91.93l61.93,186.61h-70l-11.62-33.62h-55l-11.68,33.62Zm107-145.28L1265,115.43h51ZM636.4,186.69V.08H768.76c14.94,0,27.1,5.33,36.67,11.87s17.75,14.93,21,26.38c4.64,16.23,3.61,29.3.53,38.25a48.05,48.05,0,0,1-16.15,22.5c-7.68,6-14.07,10.76-28.42,14.2,5.54,5.63,5.49,5.86,12,10.48,8.9,6.29,17.11,7.19,47.55,7.32l52.35,0v55.59l-52.71.14c-57.37.15-77.57-.3-88.56-10.16-13.82-12.39-28.85-26.92-49.73-51.6v61.63ZM703.32,46.57V81H750a15.22,15.22,0,0,0,8.1-2.78c2.89-1.85,4.46-6.53,4.64-14-.44-7.15-2.19-11.87-5.2-14.16s-5.6-3.45-7.62-3.45ZM1820.43.16H1683.87q-35.37,0-42.06,34.63t38,76q27.05,21.52-9.25,20.43h-31.75v-.08l-16.83,0c-30.46-.13-38.67-1-47.56-7.32-6.53-4.64-6.5-4.86-12-10.48,14.35-3.45,20.75-8.18,28.42-14.2A47.88,47.88,0,0,0,1607,76.57c3.07-8.95,4.1-22-.53-38.25-3.27-11.45-11.46-19.86-21-26.38S1563.71.08,1548.77.08H1416.41V186.69h66.91V125.05c20.88,24.69,35.9,39.21,49.74,51.6,11,9.86,31.18,10.61,88.56,10.16l9.95-.08v0H1730q40-6.76,40.79-41.38c.48-23.08-12.86-47.14-40.79-71.33-15.25-13.21-12.21-18.36,9.75-18.36h80.65ZM1483.32,46.57V81H1530a15.15,15.15,0,0,0,8.09-2.78c2.89-1.85,4.46-6.53,4.64-14-.44-7.15-2.19-11.87-5.21-14.16s-5.58-3.45-7.59-3.45ZM147.58.08q-35.38,0-42.05,34.63c-4.42,23.07,7.5,49.23,38,76,17.32,15.19,14.92,20.43-9.23,20.43H.57v55.59H193.74c27,0,40.29-18.28,40.79-41.38S221.45,98.46,193.74,74q-23.23-19.39,9.76-18.34h82.9V186.7h60.21V55.62h84.07V.08Zm883.07,0-16.57,55.45L995.71.08H926.65l60.87,186.61h59.64l20.43-62.34L1088,186.69h59.64L1208.51.08h-69.07l-18.37,55.45L1104.5.08Zm0,0" transform="translate(-0.57 -0.08)"/></g></svg>